<?xml version="1.0" standalone="no"?>
<!DOCTYPE svg PUBLIC "-//W3C//DTD SVG 20010904//EN"
 "http://www.w3.org/TR/2001/REC-SVG-20010904/DTD/svg10.dtd">
<svg version="1.0" xmlns="http://www.w3.org/2000/svg"
 width="464.000000pt" height="160.000000pt" viewBox="0 0 464.000000 160.000000"
 preserveAspectRatio="xMidYMid meet">

<g transform="translate(0.000000,160.000000) scale(0.100000,-0.100000)"
fill="#d60000" stroke="none">
<path d="M0 800 l0 -800 2320 0 2320 0 0 800 0 800 -2320 0 -2320 0 0 -800z
m620 65 l0 -255 110 0 110 0 0 -75 0 -75 -190 0 -190 0 0 330 0 330 80 0 80 0
0 -255z m638 183 l-3 -73 -110 -5 -110 -5 0 -50 0 -50 110 -5 110 -5 0 -65 0
-65 -110 -5 -110 -5 0 -50 0 -50 110 -5 110 -5 3 -72 3 -73 -191 0 -190 0 0
330 0 330 190 0 191 0 -3 -72z m287 -23 c36 -52 69 -95 73 -95 4 0 36 43 72
95 l65 94 93 1 93 0 -19 -27 c-10 -16 -62 -90 -116 -165 l-97 -138 97 -137
c54 -76 106 -150 116 -165 l19 -28 -93 0 -93 1 -69 99 -69 100 -69 -100 -69
-100 -90 0 c-49 0 -89 2 -89 5 0 3 50 75 110 161 61 86 110 160 110 165 0 4
-49 78 -110 163 -60 85 -110 157 -110 160 0 4 40 6 89 6 l90 0 66 -95z m595
-235 l0 -330 -80 0 -80 0 0 330 0 330 80 0 80 0 0 -330z m502 303 c62 -28 134
-96 164 -155 38 -75 36 -78 -53 -78 -76 0 -79 1 -105 33 -68 86 -202 90 -271
8 -56 -67 -56 -155 0 -222 69 -82 203 -78 271 8 26 32 29 33 105 33 89 0 91
-3 53 -78 -32 -61 -98 -125 -161 -154 -74 -34 -199 -33 -275 3 -66 31 -131 94
-162 157 -19 39 -23 63 -23 142 0 79 4 103 23 142 26 53 90 121 136 145 91 48
211 54 298 16z m700 0 c65 -30 133 -95 165 -162 37 -75 40 -200 6 -273 -30
-66 -96 -133 -162 -165 -49 -24 -68 -28 -146 -28 -83 0 -95 2 -153 34 -116 63
-176 162 -176 291 0 151 87 267 237 316 58 19 170 12 229 -13z m534 -164 l139
-190 3 190 2 191 80 0 80 0 0 -330 0 -330 -79 0 -79 0 -138 189 -139 189 -3
-189 -2 -189 -80 0 -80 0 0 330 0 330 79 0 78 0 139 -191z"/>
<path d="M3120 940 c-57 -34 -85 -84 -85 -150 0 -99 72 -170 171 -170 167 1
237 215 102 311 -46 33 -140 37 -188 9z"/>
</g>
</svg>
